<?xml version="1.0" encoding="UTF-8"?>
<svg width="120px" height="81px" viewBox="0 0 120 81" version="1.1" xmlns="http://www.w3.org/2000/svg" xmlns:xlink="http://www.w3.org/1999/xlink">
    <!-- Generator: Sketch 51.3 (57544) - http://www.bohemiancoding.com/sketch -->
    <title>TreehouseLogo Copy</title>
    <desc>Created with Sketch.</desc>
    <defs>
        <polygon id="path-1" points="0 0.00812647059 9.68877333 0.00812647059 9.68877333 13.4639206 0 13.4639206"></polygon>
        <polygon id="path-3" points="0.133093333 0.184552941 11.3333333 0.184552941 11.3333333 10.8169941 0.133093333 10.8169941"></polygon>
        <polygon id="path-5" points="0.09272 0.177167647 5.52205333 0.177167647 5.52205333 7.41176471 0.09272 7.41176471"></polygon>
        <polygon id="path-7" points="0 80.8374706 119.866667 80.8374706 119.866667 0 0 0"></polygon>
    </defs>
    <g id="Page-1" stroke="none" stroke-width="1" fill="none" fill-rule="evenodd">
        <g id="Desktop-HD" transform="translate(-240.000000, -1323.000000)">
            <g id="TreehouseLogo" transform="translate(240.000000, 1323.000000)">
                <g id="Group-84">
                    <path d="M60.0887733,3.30604412 C48.6365067,3.30604412 39.3525067,12.5215147 39.3525067,23.8898382 C39.3525067,35.2578971 48.6365067,44.4733676 60.0887733,44.4733676 C71.54104,44.4733676 80.82504,35.2578971 80.82504,23.8898382 C80.82504,12.5215147 71.54104,3.30604412 60.0887733,3.30604412 M84.15544,23.8898382 C84.15544,37.0835735 73.3805067,47.7795441 60.0887733,47.7795441 C46.79704,47.7795441 36.0221067,37.0835735 36.0221067,23.8898382 C36.0221067,10.6958382 46.79704,0.000132352941 60.0887733,0.000132352941 C73.3805067,0.000132352941 84.15544,10.6958382 84.15544,23.8898382" id="Fill-1" fill="#FFFFFF"></path>
                    <path d="M54.75544,39.6176559 L54.75544,35.2500088 L56.35544,38.0294206 L57.8221067,38.0294206 L57.8221067,30.2205971 C57.8221067,30.2205971 58.2221067,22.8419206 52.65544,24.1323618 C52.65544,24.1323618 53.3887733,22.8419206 55.05544,23.1397147 C55.05544,23.1397147 53.5887733,20.0955971 51.7887733,18.1433912 C51.7887733,18.1433912 54.25544,19.2353029 55.2221067,20.7242735 C55.2221067,20.7242735 55.65544,19.1691265 57.35544,18.9044206 C57.35544,18.9044206 55.75544,21.1213324 56.3221067,22.3125088 C56.8887733,23.5036853 59.2221067,25.1580971 59.2221067,29.9889794 L59.2221067,39.6176559 L54.75544,39.6176559 Z" id="Fill-3" fill="#FFFFFF"></path>
                    <path d="M48.2221067,21.9540971 C48.7895733,21.3145676 49.62024,20.9108912 50.5463733,20.9108912 C51.4725067,20.9108912 52.3029067,21.3145676 52.87064,21.9540971 C52.3029067,22.5936265 51.4725067,22.9973029 50.5463733,22.9973029 C49.62024,22.9973029 48.7895733,22.5936265 48.2221067,21.9540971" id="Fill-5" fill="#A8C746"></path>
                    <path d="M60.13552,11.1139676 C59.4800533,10.5633794 59.0565867,9.74729118 59.03792,8.82823235 C59.0192533,7.90917353 59.4093867,7.07667353 60.04192,6.50040882 C60.6973867,7.05099706 61.1208533,7.86708529 61.13952,8.78640882 C61.1581867,9.70520294 60.7680533,10.5377029 60.13552,11.1139676" id="Fill-7" fill="#A8C746"></path>
                    <path d="M47.2936,14.8840676 C48.1266667,14.6775971 49.0413333,14.8133912 49.8037333,15.3353912 C50.5658667,15.8573912 51.0186667,16.6578618 51.12,17.5041265 C50.2872,17.7105971 49.3722667,17.5750676 48.6101333,17.0528029 C47.8477333,16.5310676 47.3952,15.7303324 47.2936,14.8840676" id="Fill-9" fill="#A8C746"></path>
                    <path d="M52.2067467,14.1416735 C53.0646133,14.1742324 53.9051467,14.5575265 54.49048,15.26985 C55.0758133,15.9821735 55.28568,16.87635 55.1454133,17.7170559 C54.2875467,17.6847618 53.4470133,17.3012029 52.86168,16.5888794 C52.2763467,15.8768206 52.06648,14.9826441 52.2067467,14.1416735" id="Fill-11" fill="#A8C746"></path>
                    <path d="M55.1245867,13.2971294 C55.9608533,13.1038941 56.87312,13.2537176 57.6269867,13.7878941 C58.3808533,14.3215412 58.8208533,15.1291588 58.9088533,15.9770118 C58.0725867,16.1702471 57.1600533,16.0201588 56.4061867,15.4865118 C55.65232,14.9523353 55.2125867,14.1449824 55.1245867,13.2971294" id="Fill-13" fill="#A8C746"></path>
                    <path d="M55.4378667,9.65742353 C56.2741333,9.46418824 57.1864,9.61401176 57.9402667,10.1481882 C58.6941333,10.6818353 59.1341333,11.4894529 59.2221333,12.3373059 C58.3858667,12.5305412 57.4733333,12.3804529 56.7197333,11.8468059 C55.9656,11.3126294 55.5258667,10.5052765 55.4378667,9.65742353" id="Fill-15" fill="#A8C746"></path>
                    <path d="M44.7996,19.1867029 C45.3670667,18.5471735 46.1977333,18.1434971 47.1238667,18.1434971 C48.0497333,18.1434971 48.8804,18.5471735 49.4481333,19.1867029 C48.8804,19.8262324 48.0497333,20.2299088 47.1238667,20.2299088 C46.1977333,20.2299088 45.3670667,19.8262324 44.7996,19.1867029" id="Fill-17" fill="#A8C746"></path>
                    <path d="M52.5084533,29.2799118 C52.1124533,28.5239118 52.0321867,27.6090882 52.3660533,26.7517059 C52.69992,25.8943235 53.3788533,25.2709412 54.1844533,24.9757941 C54.5804533,25.7320588 54.6604533,26.6466176 54.3265867,27.504 C53.99272,28.3613824 53.3140533,28.9847647 52.5084533,29.2799118" id="Fill-19" fill="#A8C746"></path>
                    <path d="M47.1238133,26.3578235 C47.3518133,25.5361765 47.92008,24.8119412 48.7523467,24.4090588 C49.58488,24.0061765 50.50968,24.0080294 51.3022133,24.3357353 C51.0742133,25.1573824 50.5059467,25.8818824 49.67368,26.2845 C48.8411467,26.6873824 47.9163467,26.6855294 47.1238133,26.3578235" id="Fill-21" fill="#A8C746"></path>
                    <path d="M65.4221067,39.6176559 L65.4221067,35.2500088 L63.8221067,38.0294206 L62.35544,38.0294206 L62.35544,30.2205971 C62.35544,30.2205971 61.95544,22.8419206 67.5221067,24.1323618 C67.5221067,24.1323618 66.7887733,22.8419206 65.1221067,23.1397147 C65.1221067,23.1397147 66.5887733,20.0955971 68.3887733,18.1433912 C68.3887733,18.1433912 65.9221067,19.2353029 64.95544,20.7242735 C64.95544,20.7242735 64.5221067,19.1691265 62.8221067,18.9044206 C62.8221067,18.9044206 64.4221067,21.1213324 63.85544,22.3125088 C63.2887733,23.5036853 60.95544,25.1580971 60.95544,29.9889794 L60.95544,39.6176559 L65.4221067,39.6176559 Z" id="Fill-23" fill="#FFFFFF"></path>
                    <path d="M60.0887733,25.8860382 L60.6221067,21.35295 C61.6719733,22.1303912 62.65544,21.9318618 62.65544,21.9318618 C60.67224,20.9228029 60.44424,18.5735382 60.44424,18.5735382 L60.0887733,12.13245 L59.7333067,18.5735382 C59.7333067,18.5735382 59.5053067,20.9228029 57.5221067,21.9318618 C57.5221067,21.9318618 58.5055733,22.1303912 59.55544,21.35295 L60.0887733,25.8860382 Z" id="Fill-25" fill="#FFFFFF"></path>
                    <path d="M69.6310933,22.9974088 C68.70496,22.9974088 67.87456,22.5934676 67.3068267,21.9542029 C67.87456,21.3146735 68.70496,20.9107324 69.6310933,20.9107324 C70.5572267,20.9107324 71.3876267,21.3146735 71.95536,21.9542029 C71.3876267,22.5934676 70.5572267,22.9974088 69.6310933,22.9974088" id="Fill-27" fill="#A8C746"></path>
                    <path d="M71.56744,17.0529088 C70.8053067,17.5749088 69.8903733,17.7104382 69.0573067,17.5042324 C69.1589067,16.6579676 69.6117067,15.8572324 70.37384,15.3354971 C71.13624,14.8134971 72.0509067,14.6777029 72.8839733,14.8841735 C72.7823733,15.7301735 72.32984,16.5309088 71.56744,17.0529088" id="Fill-29" fill="#A8C746"></path>
                    <path d="M67.3158667,16.5889059 C66.7305333,17.3012294 65.89,17.6847882 65.0321333,17.7170824 C64.8918667,16.8763765 65.1017333,15.9822 65.6870667,15.2698765 C66.2724,14.5575529 67.1129333,14.1739941 67.9708,14.1417 C68.1110667,14.9826706 67.9012,15.8768471 67.3158667,16.5889059" id="Fill-31" fill="#A8C746"></path>
                    <path d="M63.7712,15.4863794 C63.0173333,16.0202912 62.1048,16.1701147 61.2688,15.9771441 C61.3568,15.1292912 61.7965333,14.3216735 62.5504,13.7877618 C63.3045333,13.25385 64.2168,13.1040265 65.0530667,13.2969971 C64.9650667,14.14485 64.5250667,14.9524676 63.7712,15.4863794" id="Fill-33" fill="#A8C746"></path>
                    <path d="M63.45792,11.8466735 C62.7040533,12.3805853 61.79152,12.5304088 60.95552,12.3374382 C61.04352,11.4895853 61.4832533,10.6819676 62.23712,10.1480559 C62.9912533,9.61414412 63.90352,9.46432059 64.7397867,9.65729118 C64.6517867,10.5051441 64.2117867,11.3127618 63.45792,11.8466735" id="Fill-35" fill="#A8C746"></path>
                    <path d="M73.05376,20.2300147 C72.1276267,20.2300147 71.2972267,19.8260735 70.7294933,19.1868088 C71.2972267,18.5472794 72.1276267,18.1433382 73.05376,18.1433382 C73.9798933,18.1433382 74.8102933,18.5472794 75.3780267,19.1868088 C74.8102933,19.8260735 73.9798933,20.2300147 73.05376,20.2300147" id="Fill-37" fill="#A8C746"></path>
                    <path d="M65.8507733,27.504 C65.5169067,26.6466176 65.5971733,25.7320588 65.9931733,24.9757941 C66.7987733,25.2709412 67.4777067,25.8943235 67.8115733,26.7517059 C68.1451733,27.6090882 68.0651733,28.5239118 67.6691733,29.2799118 C66.8635733,28.9847647 66.18464,28.3613824 65.8507733,27.504" id="Fill-39" fill="#A8C746"></path>
                    <path d="M70.5038933,26.2845265 C69.67136,25.8819088 69.10336,25.1574088 68.87536,24.3357618 C69.6676267,24.0077912 70.5926933,24.0062029 71.42496,24.4090853 C72.2574933,24.8119676 72.82576,25.5362029 73.05376,26.35785 C72.2612267,26.6855559 71.3364267,26.6874088 70.5038933,26.2845265" id="Fill-41" fill="#A8C746"></path>
                    <g id="Group-45" transform="translate(0.000000, 53.572765)">
                        <mask id="mask-2" fill="white">
                            <use xlink:href="#path-1"></use>
                        </mask>
                        <g id="Clip-44"></g>
                        <path d="M4.66664,0.00812647059 L2.53330667,0.00812647059 L2.53330667,4.02292059 L-2.66666667e-05,4.02292059 L-2.66666667e-05,6.14056765 L2.53330667,6.14056765 L2.53330667,10.3096853 C2.53330667,12.0490676 3.95890667,13.4639206 5.71090667,13.4639206 L9.68877333,13.4639206 L9.68877333,11.3462735 L5.71090667,11.3462735 C5.13517333,11.3462735 4.66664,10.8811853 4.66664,10.3096853 L4.66664,6.14056765 L9.68877333,6.14056765 L9.68877333,4.02292059 L4.66664,4.02292059 L4.66664,0.00812647059 Z" id="Fill-43" fill="#A8C746" mask="url(#mask-2)"></path>
                    </g>
                    <path d="M15.46664,56.22795 L13.47224,56.22795 L12.2887733,56.22795 C12.2887733,56.22795 13.27624,57.4434794 13.3333067,58.1653324 L13.3333067,67.0366853 L15.46664,67.0366853 L15.46664,60.6321265 C15.7013067,60.1381853 16.6623733,58.5221559 19.1999733,58.5221559 L19.1999733,56.4045088 C17.5557067,56.4045088 16.34504,56.8775382 15.46664,57.4839794 L15.46664,56.22795 Z" id="Fill-46" fill="#A8C746"></path>
                    <path d="M24.1866933,60.5734941 C24.6240267,59.3780824 25.77976,58.5220235 27.1330933,58.5220235 L27.8000267,58.5220235 C29.15336,58.5220235 30.3090933,59.3780824 30.7464267,60.5734941 L24.1866933,60.5734941 Z M27.8000267,56.4043765 L27.1330933,56.4043765 C24.2288267,56.4043765 21.8664267,58.7496706 21.8664267,61.6323176 L21.8664267,61.8088765 C21.8664267,64.6915235 24.2288267,67.0368176 27.1330933,67.0368176 L31.73336,67.0368176 L31.73336,64.9191706 L27.1330933,64.9191706 C25.7138933,64.9191706 24.5120267,63.9778765 24.1280267,62.6911412 L33.0666933,62.6911412 L33.0666933,61.6323176 C33.0666933,58.7496706 30.7040267,56.4043765 27.8000267,56.4043765 Z" id="Fill-48" fill="#A8C746"></path>
                    <g id="Group-52" transform="translate(108.533333, 56.219824)">
                        <mask id="mask-4" fill="white">
                            <use xlink:href="#path-3"></use>
                        </mask>
                        <g id="Clip-51"></g>
                        <path d="M2.45336,4.35367059 C2.89069333,3.15825882 4.04642667,2.3022 5.39976,2.3022 L6.06669333,2.3022 C7.42002667,2.3022 8.57576,3.15825882 9.01309333,4.35367059 L2.45336,4.35367059 Z M11.33336,5.41249412 C11.33336,2.52984706 8.97069333,0.184552941 6.06669333,0.184552941 L5.39976,0.184552941 C2.49549333,0.184552941 0.133093333,2.52984706 0.133093333,5.41249412 L0.133093333,5.58905294 C0.133093333,8.4717 2.49549333,10.8169941 5.39976,10.8169941 L10.0000267,10.8169941 L10.0000267,8.69934706 L5.39976,8.69934706 C3.98056,8.69934706 2.77869333,7.75805294 2.39469333,6.47131765 L11.33336,6.47131765 L11.33336,5.41249412 Z" id="Fill-50" fill="#A8C746" mask="url(#mask-4)"></path>
                    </g>
                    <path d="M39.0312267,60.5734941 C39.46856,59.3780824 40.6242933,58.5220235 41.9776267,58.5220235 L42.64456,58.5220235 C43.9978933,58.5220235 45.1536267,59.3780824 45.59096,60.5734941 L39.0312267,60.5734941 Z M42.64456,56.4043765 L41.9776267,56.4043765 C39.07336,56.4043765 36.71096,58.7496706 36.71096,61.6323176 L36.71096,61.8088765 C36.71096,64.6915235 39.07336,67.0368176 41.9776267,67.0368176 L46.5778933,67.0368176 L46.5778933,64.9191706 L41.9776267,64.9191706 C40.5584267,64.9191706 39.35656,63.9778765 38.97256,62.6911412 L47.9112267,62.6911412 L47.9112267,61.6323176 C47.9112267,58.7496706 45.54856,56.4043765 42.64456,56.4043765 Z" id="Fill-53" fill="#A8C746"></path>
                    <path d="M57.7333067,56.4352676 C56.45864,56.4352676 55.28744,56.8730912 54.35544,57.6002382 L54.35544,53.5809441 L52.2221067,53.5809441 L52.2221067,67.0367382 L54.35544,67.0367382 L54.35544,61.4427088 C54.5703733,59.7808853 56.0013067,58.4912382 57.7333067,58.4912382 C59.6127733,58.4912382 61.14184,60.0090618 61.14184,61.8749735 L61.14184,67.0367382 L63.2133067,67.0367382 L63.2133067,61.8749735 C63.2133067,58.8755912 60.7549067,56.4352676 57.7333067,56.4352676" id="Fill-55" fill="#A8C746"></path>
                    <path d="M73.2221067,64.9500618 L72.0221067,64.9500618 C70.22824,64.9500618 68.76904,63.5013265 68.76904,61.72065 C68.76904,59.9399735 70.22824,58.4912382 72.0221067,58.4912382 L73.2221067,58.4912382 C75.0159733,58.4912382 76.4751733,59.9399735 76.4751733,61.72065 C76.4751733,63.5013265 75.0159733,64.9500618 73.2221067,64.9500618 M73.2221067,56.4352676 L72.0221067,56.4352676 C69.0861067,56.4352676 66.6975733,58.8062382 66.6975733,61.72065 C66.6975733,64.6350618 69.0861067,67.0060324 72.0221067,67.0060324 L73.2221067,67.0060324 C76.1581067,67.0060324 78.54664,64.6350618 78.54664,61.72065 C78.54664,58.8062382 76.1581067,56.4352676 73.2221067,56.4352676" id="Fill-57" fill="#A8C746"></path>
                    <path d="M90.6085867,61.6544206 C90.6085867,63.4716265 89.1192533,64.9500088 87.2888533,64.9500088 C85.4584533,64.9500088 83.96912,63.4716265 83.96912,61.6544206 L83.96912,56.22795 L81.8976533,56.22795 L81.8976533,61.6544206 C81.8976533,64.6050971 84.3160533,67.0059794 87.2888533,67.0059794 C90.2613867,67.0059794 92.6800533,64.6050971 92.6800533,61.6544206 L92.6800533,56.22795 L90.6085867,56.22795 L90.6085867,61.6544206 Z" id="Fill-59" fill="#A8C746"></path>
                    <path d="M96.25312,59.5919647 C96.25312,61.3326706 97.6797867,62.7485824 99.4333867,62.7485824 L102.433387,62.7485824 C103.044587,62.7485824 103.54192,63.2422588 103.54192,63.8492294 C103.54192,64.4562 103.044587,64.9501412 102.433387,64.9501412 L96.0000533,64.9501412 L96.0000533,67.0058471 L102.433387,67.0058471 C104.18672,67.0058471 105.613387,65.5899353 105.613387,63.8492294 C105.613387,62.1085235 104.18672,60.6926118 102.433387,60.6926118 L99.4333867,60.6926118 C98.82192,60.6926118 98.3245867,60.1989353 98.3245867,59.5919647 C98.3245867,58.9849941 98.82192,58.4910529 99.4333867,58.4910529 L105.95552,58.4910529 L105.95552,56.4353471 L99.4333867,56.4353471 C97.6797867,56.4353471 96.25312,57.8512588 96.25312,59.5919647" id="Fill-61" fill="#A8C746"></path>
                    <path d="M22.4878667,79.5583853 C21.1377333,79.5583853 20.0388,78.4677971 20.0388,77.1273265 C20.0388,75.7868559 21.1377333,74.6962676 22.4878667,74.6962676 C23.8382667,74.6962676 24.9372,75.7868559 24.9372,77.1273265 C24.9372,78.4677971 23.8382667,79.5583853 22.4878667,79.5583853 M22.4878667,73.5246794 C20.4868,73.5246794 18.8588,75.1409735 18.8588,77.1273265 C18.8588,79.1136794 20.4868,80.7299735 22.4878667,80.7299735 C24.4892,80.7299735 26.1172,79.1136794 26.1172,77.1273265 C26.1172,75.1409735 24.4892,73.5246794 22.4878667,73.5246794" id="Fill-63" fill="#FFFFFF"></path>
                    <path d="M10.9519467,75.2388353 C11.4599467,74.8301294 12.09888,74.6427176 12.7490133,74.7094235 C13.39968,74.7769235 13.9847467,75.0919235 14.39648,75.5964529 L15.3135467,74.8589824 C14.7031467,74.1111882 13.8359467,73.6445118 12.8719467,73.5441882 C11.9087467,73.4446588 10.96208,73.7226 10.2087467,74.3287765 C9.45568,74.9346882 8.98528,75.7955118 8.88448,76.7524235 C8.78368,77.7093353 9.06421333,78.6482471 9.67461333,79.3957765 C10.2850133,80.1433059 11.1522133,80.6102471 12.11648,80.7103059 C12.24528,80.7238059 12.3735467,80.7304235 12.50128,80.7304235 C13.3295467,80.7304235 14.12688,80.4511588 14.77968,79.9262471 L14.0362133,79.0159235 C13.5282133,79.4248941 12.8927467,79.6131 12.2391467,79.5453353 C11.5887467,79.4775706 11.0034133,79.1625706 10.5914133,78.6580412 C10.17968,78.1535118 9.99034667,77.5200706 10.0583467,76.8744529 C10.1263467,76.2285706 10.4439467,75.6475412 10.9519467,75.2388353" id="Fill-65" fill="#FFFFFF"></path>
                    <g id="Group-69" transform="translate(56.000000, 73.425706)">
                        <mask id="mask-6" fill="white">
                            <use xlink:href="#path-5"></use>
                        </mask>
                        <g id="Clip-68"></g>
                        <path d="M4.34178667,4.71713824 C4.34178667,5.55705 3.65352,6.24025588 2.80738667,6.24025588 C1.96125333,6.24025588 1.27298667,5.55705 1.27298667,4.71713824 L1.27298667,0.177167647 L0.09272,0.177167647 L0.09272,4.71713824 C0.09272,6.20293235 1.31058667,7.41184412 2.80738667,7.41184412 C4.30418667,7.41184412 5.52205333,6.20293235 5.52205333,4.71713824 L5.52205333,0.177167647 L4.34178667,0.177167647 L4.34178667,4.71713824 Z" id="Fill-67" fill="#FFFFFF" mask="url(#mask-6)"></path>
                    </g>
                    <polygon id="Fill-70" fill="#FFFFFF" points="34.71496 78.8610971 32.2544267 73.6027147 31.0136267 73.6027147 31.0136267 80.5287441 32.1938933 80.5287441 32.1938933 76.2545382 34.1938933 80.5287441 35.2360267 80.5287441 37.23576 76.2548029 37.23576 80.5287441 38.4160267 80.5287441 38.4160267 73.6027147 37.1752267 73.6027147"></polygon>
                    <polygon id="Fill-72" fill="#FFFFFF" points="47.2889067 78.8610971 44.8283733 73.6027147 43.5875733 73.6027147 43.5875733 80.5287441 44.76784 80.5287441 44.76784 76.2545382 46.76784 80.5287441 47.8099733 80.5287441 49.8097067 76.2548029 49.8097067 80.5287441 50.9899733 80.5287441 50.9899733 73.6027147 49.7491733 73.6027147"></polygon>
                    <polygon id="Fill-74" fill="#FFFFFF" points="71.05792 78.4636412 67.1997867 73.6028471 66.4357867 73.6028471 66.4357867 80.5286118 67.6160533 80.5286118 67.6160533 76.0204059 71.1944533 80.5286118 72.2381867 80.5286118 72.2381867 73.6028471 71.05792 73.6028471"></polygon>
                    <mask id="mask-8" fill="white">
                        <use xlink:href="#path-7"></use>
                    </mask>
                    <g id="Clip-77"></g>
                    <polygon id="Fill-76" fill="#FFFFFF" mask="url(#mask-8)" points="77.3914667 80.5285588 78.5717333 80.5285588 78.5717333 73.6025294 77.3914667 73.6025294"></polygon>
                    <polygon id="Fill-78" fill="#FFFFFF" mask="url(#mask-8)" points="93.2914667 80.5285588 94.4717333 80.5285588 94.4717333 73.6025294 93.2914667 73.6025294"></polygon>
                    <polygon id="Fill-79" fill="#FFFFFF" mask="url(#mask-8)" points="88.6162667 73.6032971 88.6162667 74.7732971 86.5229333 74.7732971 86.5229333 80.5280029 85.3416 80.5280029 85.3416 74.7732971 83.1656 74.7732971 83.1656 73.6032971"></polygon>
                    <polygon id="Fill-80" fill="#FFFFFF" mask="url(#mask-8)" points="100.637627 74.7732706 100.637627 76.4806235 103.205627 76.4806235 103.205627 77.6506235 100.637627 77.6506235 100.637627 79.5009176 103.701627 79.5009176 103.701627 80.6735647 99.45896 80.6735647 99.45896 73.6032706 103.701627 73.6032706 103.701627 74.7732706"></polygon>
                    <path d="M111.275893,76.3770176 C110.70976,76.0532824 110.00496,75.6506647 110.00496,75.3449294 C110.00496,75.2252824 110.047893,74.6291647 110.892693,74.6291647 C111.48656,74.6291647 111.88016,75.0286059 111.88016,75.1906059 L113.06016,75.1906059 C113.06016,74.2673118 112.04736,73.4575765 110.892693,73.4575765 C109.535093,73.4575765 108.82496,74.4070765 108.82496,75.3449294 C108.82496,76.3280471 109.77136,76.8691059 110.686827,77.3921647 C111.371093,77.7834 112.147093,78.2267824 112.147093,78.6979588 C112.147093,79.2993706 111.350293,79.5018706 110.986827,79.5018706 C110.46096,79.5018706 109.794027,79.0193118 109.794027,78.4771941 L108.614027,78.4771941 C108.614027,79.7342824 109.866827,80.6731941 110.986827,80.6731941 C112.137227,80.6731941 113.327093,79.9344 113.327093,78.6979588 C113.327093,77.5494 112.237227,76.9265471 111.275893,76.3770176" id="Fill-81" fill="#FFFFFF" mask="url(#mask-8)"></path>
                    <path d="M115.947627,78.7271824 L115.46896,78.7271824 C115.43456,78.7271824 115.409227,78.6993882 115.409227,78.6681529 L115.409227,78.4135059 C115.409227,78.3822706 115.43456,78.3544765 115.46896,78.3544765 L116.836427,78.3544765 C116.87056,78.3544765 116.895627,78.3822706 116.895627,78.4135059 L116.895627,78.6681529 C116.895627,78.6993882 116.87056,78.7271824 116.836427,78.7271824 L116.357493,78.7271824 L116.357493,80.4697412 C116.357493,80.5007118 116.329493,80.5287706 116.298027,80.5287706 L116.007093,80.5287706 C115.975627,80.5287706 115.947627,80.5007118 115.947627,80.4697412 L115.947627,78.7271824 Z" id="Fill-82" fill="#FFFFFF" mask="url(#mask-8)"></path>
                    <path d="M117.536187,78.3699353 C117.539387,78.3450529 117.558053,78.3233471 117.592453,78.3233471 L117.642587,78.3233471 C117.667653,78.3233471 117.68632,78.3357882 117.69592,78.3543176 L118.384187,79.8205235 L118.39352,79.8205235 L119.082053,78.3543176 C119.091387,78.3357882 119.10712,78.3233471 119.13512,78.3233471 L119.185253,78.3233471 C119.219653,78.3233471 119.23832,78.3450529 119.24152,78.3699353 L119.610853,80.4571412 C119.620187,80.5008176 119.59512,80.5286118 119.55432,80.5286118 L119.26952,80.5286118 C119.24152,80.5286118 119.216453,80.5039941 119.21032,80.4820235 L119.02552,79.3048765 L119.016187,79.3048765 L118.46872,80.5257 C118.46232,80.5442294 118.443653,80.5595824 118.415387,80.5595824 L118.35912,80.5595824 C118.330853,80.5595824 118.315387,80.5442294 118.306053,80.5257 L117.752187,79.3048765 L117.742587,79.3048765 L117.561253,80.4820235 C117.558053,80.5039941 117.532987,80.5286118 117.504987,80.5286118 L117.223387,80.5286118 C117.182587,80.5286118 117.15752,80.5008176 117.16392,80.4571412 L117.536187,78.3699353 Z" id="Fill-83" fill="#FFFFFF" mask="url(#mask-8)"></path>
                </g>
            </g>
        </g>
    </g>
</svg>